<?xml version="1.0" encoding="utf-8"?>
<!-- Generator: Adobe Illustrator 26.3.1, SVG Export Plug-In . SVG Version: 6.00 Build 0)  -->
<svg version="1.1" id="Capa_1" xmlns="http://www.w3.org/2000/svg" xmlns:xlink="http://www.w3.org/1999/xlink" x="0px" y="0px"
	 viewBox="0 0 162 73.1" style="enable-background:new 0 0 162 73.1;" xml:space="preserve">
<style type="text/css">
	.st0{fill:url(#SVGID_1_);}
</style>
<linearGradient id="SVGID_1_" gradientUnits="userSpaceOnUse" x1="30.0138" y1="99.2117" x2="143.7869" y2="-14.5615">
	<stop  offset="0" style="stop-color:#211534"/>
	<stop  offset="0.1455" style="stop-color:#2F1837"/>
	<stop  offset="0.4516" style="stop-color:#5A1D3C"/>
	<stop  offset="0.8895" style="stop-color:#AB1F3A"/>
	<stop  offset="1" style="stop-color:#C21E38"/>
</linearGradient>
<path class="st0" d="M0,65.2V40.8h5.1v25c0,1.9,1,2.9,2.9,3v4.4C2.6,73.1,0,70.5,0,65.2z M12.4,65.9v-9c0-4.5,2.3-6.8,6.8-6.8h5.6
	c4.5,0,6.8,2.3,6.8,6.8v6.4H17.5v3.1c0,1.3,0.7,2,2,2h11.3v2.7l-2.3,1.7h-9.2C14.7,72.8,12.4,70.5,12.4,65.9z M17.5,59.4h9.1v-2.9
	c0-1.3-0.7-2-2-2h-5.1c-1.3,0-2,0.7-2,2V59.4z M35.4,50.9l0.5-0.8h4.4L46,68.4h0.6l5.7-18.3h4.4l0.5,0.8l-7.1,21.9h-7.6L35.4,50.9z
	 M60.9,65.9v-9c0-4.5,2.3-6.8,6.8-6.8h5.6c4.5,0,6.8,2.3,6.8,6.8v6.4H65.9v3.1c0,1.3,0.7,2,2,2h11.3v2.7L77,72.8h-9.2
	C63.2,72.8,60.9,70.5,60.9,65.9z M65.9,59.4h9.1v-2.9c0-1.3-0.7-2-2-2h-5.1c-1.3,0-2,0.7-2,2V59.4z M86.1,65.2V40.8h5.1v25
	c0,1.9,1,2.9,2.9,3v4.4C88.7,73.1,86.1,70.5,86.1,65.2z M136.3,72.9h-34.4c-1.5,0-2.7-1.2-2.7-2.6s1.2-2.6,2.7-2.6h34.4
	c0.5,0,0.9-0.4,0.9-0.9v-7.4h-31.7c-3.4,0-6.3-2.8-6.3-6.2V19.1c0-3.4,2.8-6.2,6.3-6.2H118V6.2c0-3.4,2.8-6.2,6.3-6.2h31.5
	c3.4,0,6.2,2.8,6.2,6.2V53c0,3.4-2.8,6.2-6.2,6.2h-13.2v7.4C142.5,70.1,139.7,72.9,136.3,72.9z M142.5,54h13.2c0.5,0,0.9-0.4,0.9-1
	v-7.2h-14.2V54z M105.5,18.2c-0.5,0-1,0.4-1,1V53c0,0.5,0.4,1,1,1h31.7v-8.2h-12.9c-3.4,0-6.3-2.8-6.3-6.2V18.2H105.5z M142.5,40.5
	h14.2V6.2c0-0.5-0.4-1-0.9-1h-31.5c-0.5,0-1,0.4-1,1v6.6h13c3.4,0,6.2,2.8,6.2,6.2V40.5z M123.3,18.2v21.4c0,0.5,0.4,1,1,1h12.9
	V19.1c0-0.5-0.4-1-0.9-1H123.3z"/>
</svg>
